<svg xmlns="http://www.w3.org/2000/svg" xmlns:xlink="http://www.w3.org/1999/xlink" width="351" zoomAndPan="magnify" viewBox="0 0 263.25 263.249989" height="351" preserveAspectRatio="xMidYMid meet" version="1.0"><defs><g/><clipPath id="f9360fa7d2"><path d="M 0 0 L 262.503906 0 L 262.503906 262.503906 L 0 262.503906 Z M 0 0 " clip-rule="nonzero"/></clipPath><clipPath id="55a18ea4a9"><path d="M 0.0859375 0.636719 L 262.503906 0.636719 L 262.503906 262.390625 L 0.0859375 262.390625 Z M 0.0859375 0.636719 " clip-rule="nonzero"/></clipPath><clipPath id="4e71a20347"><path d="M 131.253906 0.636719 C 58.808594 0.636719 0.0859375 59.230469 0.0859375 131.507812 C 0.0859375 203.785156 58.808594 262.378906 131.253906 262.378906 C 203.695312 262.378906 262.417969 203.785156 262.417969 131.507812 C 262.417969 59.230469 203.695312 0.636719 131.253906 0.636719 Z M 131.253906 0.636719 " clip-rule="nonzero"/></clipPath><clipPath id="ef3ad016ad"><path d="M 12.226562 12.753906 L 250.285156 12.753906 L 250.285156 250.273438 L 12.226562 250.273438 Z M 12.226562 12.753906 " clip-rule="nonzero"/></clipPath><clipPath id="8bb60d3cc3"><path d="M 131.253906 12.753906 C 65.515625 12.753906 12.226562 65.921875 12.226562 131.515625 C 12.226562 197.105469 65.515625 250.273438 131.253906 250.273438 C 196.992188 250.273438 250.285156 197.105469 250.285156 131.515625 C 250.285156 65.921875 196.992188 12.753906 131.253906 12.753906 Z M 131.253906 12.753906 " clip-rule="nonzero"/></clipPath><clipPath id="ccc1df8085"><path d="M 12.226562 12.753906 L 250.046875 12.753906 L 250.046875 250.574219 L 12.226562 250.574219 Z M 12.226562 12.753906 " clip-rule="nonzero"/></clipPath><clipPath id="709f39527c"><path d="M 131.253906 12.753906 C 65.515625 12.753906 12.226562 65.921875 12.226562 131.511719 C 12.226562 197.101562 65.515625 250.269531 131.253906 250.269531 C 196.992188 250.269531 250.28125 197.101562 250.28125 131.511719 C 250.28125 65.921875 196.992188 12.753906 131.253906 12.753906 Z M 131.253906 12.753906 " clip-rule="nonzero"/></clipPath></defs><g clip-path="url(#f9360fa7d2)"><path fill="#ffffff" d="M 0 0 L 262.503906 0 L 262.503906 262.503906 L 0 262.503906 Z M 0 0 " fill-opacity="1" fill-rule="nonzero"/></g><g clip-path="url(#55a18ea4a9)"><g clip-path="url(#4e71a20347)"><path stroke-linecap="butt" transform="matrix(0.747869, 0, 0, 0.747869, 0.0848542, 0.637619)" fill="none" stroke-linejoin="miter" d="M 175.390352 -0.00120339 C 78.521398 -0.00120339 0.00144848 78.346381 0.00144848 174.990739 C 0.00144848 271.635097 78.521398 349.982681 175.390352 349.982681 C 272.254083 349.982681 350.774032 271.635097 350.774032 174.990739 C 350.774032 78.346381 272.254083 -0.00120339 175.390352 -0.00120339 Z M 175.390352 -0.00120339 " stroke="#106600" stroke-width="14" stroke-opacity="1" stroke-miterlimit="4"/></g></g><g clip-path="url(#ef3ad016ad)"><g clip-path="url(#8bb60d3cc3)"><path fill="#106600" d="M 12.226562 12.753906 L 250.285156 12.753906 L 250.285156 250.273438 L 12.226562 250.273438 Z M 12.226562 12.753906 " fill-opacity="1" fill-rule="nonzero"/></g></g><g clip-path="url(#ccc1df8085)"><g clip-path="url(#709f39527c)"><path stroke-linecap="butt" transform="matrix(0.747869, 0, 0, 0.747869, 12.225374, 12.752529)" fill="none" stroke-linejoin="miter" d="M 159.156873 0.00184132 C 71.256106 0.00184132 0.00158955 71.09444 0.00158955 158.796726 C 0.00158955 246.499013 71.256106 317.591611 159.156873 317.591611 C 247.057641 317.591611 318.312157 246.499013 318.312157 158.796726 C 318.312157 71.09444 247.057641 0.00184132 159.156873 0.00184132 Z M 159.156873 0.00184132 " stroke="#106600" stroke-width="14" stroke-opacity="1" stroke-miterlimit="4"/></g></g><g fill="#ffffff" fill-opacity="1"><g transform="translate(24.73745, 144.93492)"><g><path d="M 34.808594 -28.089844 C 31.296875 -28.089844 28.191406 -26.359375 26.308594 -23.714844 C 24.679688 -26.460938 21.832031 -28.089844 18.320312 -28.089844 C 15.0625 -28.089844 12.058594 -26.511719 10.125 -24.070312 L 8.753906 -27.480469 L 3.5625 -27.480469 L 3.5625 0 L 10.992188 0 L 10.992188 -14.859375 C 10.992188 -19.132812 12.976562 -21.574219 16.335938 -21.574219 C 18.980469 -21.574219 20.40625 -19.640625 20.40625 -15.976562 L 20.40625 0 L 27.632812 0 L 27.632812 -14.859375 C 27.632812 -19.132812 29.617188 -21.574219 32.925781 -21.574219 C 35.621094 -21.574219 37.046875 -19.640625 37.046875 -15.976562 L 37.046875 0 L 44.476562 0 L 44.476562 -17.199219 C 44.476562 -23.664062 40.507812 -28.089844 34.808594 -28.089844 Z M 34.808594 -28.089844 "/></g></g></g><g fill="#ffffff" fill-opacity="1"><g transform="translate(72.469736, 144.93492)"><g><path d="M 16.082031 0.8125 C 23.867188 0.8125 29.003906 -4.171875 29.003906 -11.601562 L 29.003906 -27.480469 L 21.574219 -27.480469 L 21.574219 -12.417969 C 21.574219 -8.550781 19.539062 -6.207031 16.082031 -6.207031 C 12.671875 -6.207031 10.585938 -8.5 10.585938 -12.417969 L 10.585938 -27.480469 L 3.15625 -27.480469 L 3.15625 -11.601562 C 3.15625 -4.171875 8.34375 0.8125 16.082031 0.8125 Z M 16.082031 0.8125 "/></g></g></g><g fill="#ffffff" fill-opacity="1"><g transform="translate(104.681416, 144.93492)"><g><path d="M 34.808594 -28.089844 C 31.296875 -28.089844 28.191406 -26.359375 26.308594 -23.714844 C 24.679688 -26.460938 21.832031 -28.089844 18.320312 -28.089844 C 15.0625 -28.089844 12.058594 -26.511719 10.125 -24.070312 L 8.753906 -27.480469 L 3.5625 -27.480469 L 3.5625 0 L 10.992188 0 L 10.992188 -14.859375 C 10.992188 -19.132812 12.976562 -21.574219 16.335938 -21.574219 C 18.980469 -21.574219 20.40625 -19.640625 20.40625 -15.976562 L 20.40625 0 L 27.632812 0 L 27.632812 -14.859375 C 27.632812 -19.132812 29.617188 -21.574219 32.925781 -21.574219 C 35.621094 -21.574219 37.046875 -19.640625 37.046875 -15.976562 L 37.046875 0 L 44.476562 0 L 44.476562 -17.199219 C 44.476562 -23.664062 40.507812 -28.089844 34.808594 -28.089844 Z M 34.808594 -28.089844 "/></g></g></g><g fill="#ffffff" fill-opacity="1"><g transform="translate(152.413702, 144.93492)"><g><path d="M 20.355469 -27.070312 L 13.28125 -27.070312 L 13.28125 -29.414062 C 13.28125 -31.347656 14.300781 -32.363281 16.285156 -32.363281 L 20.304688 -32.363281 L 20.304688 -38.214844 L 14.808594 -38.214844 C 9.007812 -38.214844 6.054688 -34.859375 6.054688 -29.566406 L 6.054688 -27.070312 L 1.273438 -27.070312 L 1.273438 -20.964844 L 6.003906 -20.964844 L 6.003906 0 L 13.433594 0 L 13.433594 -20.964844 L 20.355469 -20.964844 Z M 20.355469 -27.070312 "/></g></g></g><g fill="#ffffff" fill-opacity="1"><g transform="translate(173.53197, 144.93492)"><g><path d="M 25.953125 -27.480469 L 25.1875 -24.882812 C 22.796875 -26.96875 19.691406 -28.242188 16.132812 -28.242188 C 7.886719 -28.242188 1.730469 -22.035156 1.730469 -13.738281 C 1.730469 -5.445312 7.886719 0.8125 16.132812 0.8125 C 19.640625 0.8125 22.695312 -0.40625 25.035156 -2.492188 L 25.699219 0 L 31.5 0 L 31.5 -27.480469 Z M 16.742188 -6.207031 C 12.417969 -6.207031 9.261719 -9.464844 9.261719 -13.738281 C 9.261719 -18.066406 12.417969 -21.269531 16.742188 -21.269531 C 21.066406 -21.269531 24.222656 -18.066406 24.222656 -13.738281 C 24.222656 -9.414062 21.066406 -6.207031 16.742188 -6.207031 Z M 16.742188 -6.207031 "/></g></g></g><g fill="#ffffff" fill-opacity="1"><g transform="translate(208.644232, 144.93492)"><g><path d="M 3.5625 0 L 10.992188 0 L 10.992188 -37.351562 L 3.5625 -37.351562 Z M 3.5625 0 "/></g></g></g><g fill="#ffffff" fill-opacity="1"><g transform="translate(223.197998, 144.93492)"><g><path d="M 3.5625 -31.144531 L 10.941406 -31.144531 L 10.941406 -38.011719 L 3.5625 -38.011719 Z M 3.5625 0 L 10.992188 0 L 10.992188 -27.480469 L 3.5625 -27.480469 Z M 3.5625 0 "/></g></g></g></svg>